Coordinates
version=1
nRows=8
nColumns=40
inDegrees=yes

Units are S.I. units (second, meters, Newtons, ...)
Angles are in degrees.

endheader
time	pelvis_tilt	pelvis_list	pelvis_rotation	pelvis_tx	pelvis_ty	pelvis_tz	hip_flexion_r	hip_adduction_r	hip_rotation_r	knee_angle_r	knee_angle_r_beta	ankle_angle_r	subtalar_angle_r	mtp_angle_r	hip_flexion_l	hip_adduction_l	hip_rotation_l	knee_angle_l	knee_angle_l_beta	ankle_angle_l	subtalar_angle_l	mtp_angle_l	lumbar_extension	lumbar_bending	lumbar_rotation	arm_flex_r	arm_add_r	arm_rot_r	elbow_flex_r	pro_sup_r	wrist_flex_r	wrist_dev_r	arm_flex_l	arm_add_l	arm_rot_l	elbow_flex_l	pro_sup_l	wrist_flex_l	wrist_dev_l
     54.64500000	     -8.69920233	     -5.39379546	      3.28254757	      0.88607842	      0.92207250	      0.45441233	      2.32653257	      1.91445870	    -16.27803378	     17.08377733	     17.08377733	     15.58257098	      4.15834875	     -5.38516711	     29.22984598	     -4.30063298	      2.23860055	     25.56231467	     25.56231467	      8.07387351	    -14.83482301	      9.63917947	     -7.93522257	      4.94845492	      2.62939029	     27.76690679	    -12.77652612	     -3.49975344	     79.53685285	     44.86659741	      0.00000000	      0.00000000	     -5.74281260	     -7.43260941	     -1.42017618	     30.50790473	     45.35779651	      0.00000000	      0.00000000
     54.65800000	     -8.70909605	     -5.28988693	      3.20317690	      0.88648254	      0.92326117	      0.45138731	      2.61847811	      1.31872342	    -16.18511594	     18.48685657	     18.48685657	     15.19182257	      3.94866555	     -5.94060276	     28.52115395	     -4.11547852	      1.86251732	     25.23134673	     25.23134673	      8.51791293	    -14.46393725	      9.54364425	     -7.91338131	      4.97864436	      2.92148713	     26.06069345	    -13.07005575	     -3.27714609	     77.80493132	     44.91462474	      0.00000000	      0.00000000	     -4.47573751	     -7.49796701	     -1.55345924	     31.43012642	     45.40146117	      0.00000000	      0.00000000
     54.67100000	     -8.72078703	     -5.18529947	      3.11564693	      0.88678219	      0.92432671	      0.44834695	      3.09474255	      0.65650964	    -16.10540822	     20.21823591	     20.21823591	     14.73425063	      3.67762808	     -6.72343988	     27.80427398	     -3.94357253	      1.40589766	     24.87634256	     24.87634256	      8.94468661	    -14.02460601	      9.37597311	     -7.87107498	      5.02109999	      3.16089474	     24.39619766	    -13.28295465	     -3.16961564	     75.64558069	     44.97989292	      0.00000000	      0.00000000	     -3.22070060	     -7.58164687	     -1.69145926	     32.47997882	     45.44404154	      0.00000000	      0.00000000
     54.68400000	     -8.74236997	     -5.18076786	      3.04923234	      0.88691971	      0.92522386	      0.44541785	      3.66841341	      0.12865508	    -15.84143906	     21.94621177	     21.94621177	     13.25067337	      2.80096081	     -9.94220680	     27.14831070	     -3.89135612	      0.96511591	     24.57164974	     24.57164974	      9.35493384	    -13.38444032	      8.88717580	     -7.75244726	      5.14216187	      2.48535084	     24.06371375	    -12.38826703	     -3.20448342	     70.47186327	     45.16870624	      0.00000000	      0.00000000	     -2.87345821	     -7.85169178	     -2.08283275	     34.84379796	     45.52618446	      0.00000000	      0.00000000
     54.69700000	     -8.73479189	     -5.07395079	      2.92169238	      0.88690991	      0.92608600	      0.44255566	      4.62474061	     -0.62852553	    -15.48020212	     24.52416557	     24.52416557	     12.54636223	      2.06367450	    -10.79791703	     26.38868352	     -3.74011986	      0.49499576	     24.15841092	     24.15841092	      9.76280047	    -12.84195866	      8.63957845	     -7.77653211	      5.15646239	      2.80166275	     22.25389065	    -12.73011505	     -2.97038058	     68.52074797	     45.22056966	      0.00000000	      0.00000000	     -1.47943548	     -7.94651173	     -2.27878632	     35.96657820	     45.57730924	      0.00000000	      0.00000000
     54.71000000	     -8.73744883	     -5.07518466	      2.77983888	      0.88676186	      0.92671880	      0.43993966	      5.72501271	     -1.14772842	    -14.72789769	     27.10841444	     27.10841444	     10.70136626	      0.05609364	    -14.11152643	     25.72719605	     -3.76062053	     -0.12134042	     23.85880077	     23.85880077	     10.09959175	    -12.10249295	      7.83010793	     -7.73728021	      5.29618790	      2.27799415	     21.84833153	    -12.06253164	     -2.90924699	     63.28930587	     45.40018197	      0.00000000	      0.00000000	     -1.00792587	     -8.27894178	     -2.76381141	     38.49979351	     45.67682502	      0.00000000	      0.00000000
     54.72300000	     -8.71328905	     -4.94778877	      2.58509170	      0.88641066	      0.92722314	      0.43737213	      7.24132879	     -1.97221942	    -14.08920074	     30.59331132	     30.59331132	      9.69911497	     -1.13884871	    -14.77418073	     24.99263680	     -3.60594195	     -0.58545331	     23.49766060	     23.49766060	     10.53707184	    -11.61502432	      7.55843329	     -7.83848161	      5.28783150	      2.61191860	     19.97673096	    -12.39577938	     -2.72831008	     61.34677608	     45.45178686	      0.00000000	      0.00000000	      0.51728079	     -8.44927037	     -2.98671176	     39.65122680	     45.73080791	      0.00000000	      0.00000000
     54.73600000	     -8.72808330	     -4.88140207	      2.32928862	      0.88587925	      0.92747462	      0.43516968	      9.06024029	     -2.61871799	    -13.12216278	     34.36674772	     34.36674772	      8.38745934	     -2.93010530	    -15.32332493	     24.36676948	     -3.55975265	     -1.11963694	     23.23384451	     23.23384451	     10.99389773	    -11.11415141	      7.17767388	     -7.87755657	      5.32630953	      2.98789305	     18.22176589	    -12.61858942	     -2.65242484	     58.82739485	     45.52781643	      0.00000000	      0.00000000	      1.97443286	     -8.64750865	     -3.19822204	     41.01706083	     45.78340597	      0.00000000	      0.00000000
